HIERARCHY
ROOT Hips
{
  OFFSET -35.2597 29.1586 114.425
  CHANNELS 6 Xposition Yposition Zposition Zrotation Xrotation Yrotation
  JOINT LeftUpLeg
  {
    OFFSET 8.64259 1.95398 -2.38835
    CHANNELS 3 Zrotation Xrotation Yrotation
    JOINT LeftLeg
    {
      OFFSET 43.7702 0 0
      CHANNELS 3 Zrotation Xrotation Yrotation
      JOINT LeftFoot
      {
        OFFSET 40.6238 0 0
        CHANNELS 3 Zrotation Xrotation Yrotation
        JOINT LeftToeBase
        {
          OFFSET 12.7242 0 0
          CHANNELS 3 Zrotation Xrotation Yrotation
          End Site
          {
            OFFSET 0 0 0
          }
        }
      }
    }
  }
  JOINT RightUpLeg
  {
    OFFSET -8.2249 1.95398 -2.59336
    CHANNELS 3 Zrotation Xrotation Yrotation
    JOINT RightLeg
    {
      OFFSET 43.5653 0 0
      CHANNELS 3 Zrotation Xrotation Yrotation
      JOINT RightFoot
      {
        OFFSET 40.6238 0 0
        CHANNELS 3 Zrotation Xrotation Yrotation
        JOINT RightToeBase
        {
          OFFSET 12.7242 0 0
          CHANNELS 3 Zrotation Xrotation Yrotation
          End Site
          {
            OFFSET 0 0 0
          }
        }
      }
    }
  }
  JOINT Spine
  {
    OFFSET 0.165834 0.87714 6.61349
    CHANNELS 3 Zrotation Xrotation Yrotation
    JOINT Spine1
    {
      OFFSET 7.38963 1.71661e-005 0
      CHANNELS 3 Zrotation Xrotation Yrotation
      JOINT Spine2
      {
        OFFSET 11.9445 1.14441e-005 0
        CHANNELS 3 Zrotation Xrotation Yrotation
        JOINT Spine3
        {
          OFFSET 14.7254 4.19617e-005 0
          CHANNELS 3 Zrotation Xrotation Yrotation
          JOINT Spine4
          {
            OFFSET 10.9679 0 0
            CHANNELS 3 Zrotation Xrotation Yrotation
            JOINT RightShoulder
            {
              OFFSET 2.46616 -1.6653 3.69651
              CHANNELS 3 Zrotation Xrotation Yrotation
              JOINT RightArm
              {
                OFFSET 13.0012 0 0
                CHANNELS 3 Zrotation Xrotation Yrotation
                JOINT RightForeArm
                {
                  OFFSET 28.7848 1.62311e-005 0
                  CHANNELS 3 Zrotation Xrotation Yrotation
                  JOINT RightHand
                  {
                    OFFSET 26.5688 1.62095e-005 0
                    CHANNELS 3 Zrotation Xrotation Yrotation
                    End Site
                    {
                      OFFSET 0 0 0
                    }
                  }
                }
              }
            }
            JOINT LeftShoulder
            {
              OFFSET 2.38034 -1.29275 -3.7523
              CHANNELS 3 Zrotation Xrotation Yrotation
              JOINT LeftArm
              {
                OFFSET 16.3182 6.07031e-005 0
                CHANNELS 3 Zrotation Xrotation Yrotation
                JOINT LeftForeArm
                {
                  OFFSET 27.0901 0 0
                  CHANNELS 3 Zrotation Xrotation Yrotation
                  JOINT LeftHand
                  {
                    OFFSET 24.5451 1.51738e-005 0
                    CHANNELS 3 Zrotation Xrotation Yrotation
                    End Site
                    {
                      OFFSET 0 0 0
                    }
                  }
                }
              }
            }
            JOINT Neck
            {
              OFFSET 5.0226 -0.0266342 0
              CHANNELS 3 Zrotation Xrotation Yrotation
              JOINT Head
              {
                OFFSET 6.69364 2.86102e-005 0
                CHANNELS 3 Zrotation Xrotation Yrotation
                End Site
                {
                  OFFSET 0 0 0
                }
              }
            }
          }
        }
      }
    }
  }
}
MOTION
Frames:	10
Frame Time:	0.0416667
37.2332 57.4894 16.2681 -9.77327 -52.697 -14.8202 -80.9611 66.9989 19.6762 -127.65 17.8892 6.70602 99.3548 29.3039 -1.42008 43.7072 3.15005 11.9613 88.269 72.3214 158.733 -126.182 -10.7414 -5.62783 95.9939 -29.7625 -5.34167 54.0556 -10.2674 1.85313 0.576638 13.5386 -90.0088 -0.204652 1.14641 0.0410548 -11.8751 1.14711 -0.00944121 -34.4139 1.08107 0.383749 -14.4013 1.08107 0.383743 94.1704 -8.42616 -106.873 12.7686 23.3497 -51.4191 -5.74622 -47.9456 -5.73364 -84.373 -8.30191 4.10167 -84.1073 -15.1136 81.1338 -19.9054 -13.6948 -79.7295 3.4679 38.2876 -4.54045 71.7657 3.25362 0.0549988 8.937 -1.65617 -9.12847 3.21101 0.559984 6.30511 
38.2275 55.225 12.6306 -13.5604 -56.501 -16.7336 -78.5805 65.3537 18.2486 -130.76 14.5279 7.18819 102.162 33.195 1.57758 47.1517 3.9713 15.8788 82.8166 71.2912 162.534 -130.055 -12.824 -6.13001 96.7639 -30.2894 -5.11843 51.8937 -9.58293 4.09176 0.426291 13.2606 -90.2415 0.353681 0.760451 -0.436231 -11.3171 0.740518 -0.469268 -33.8539 0.856394 -0.187498 -13.8413 0.856392 -0.187493 93.4784 -3.39459 -112.718 13.9831 21.9374 -48.013 -5.96231 -50.4036 -5.88398 -73.118 -9.64971 8.00771 -86.8806 -25.0479 77.8899 -17.6814 -17.1346 -76.8336 3.75761 43.3999 -4.83205 64.443 2.92206 0.196046 -5.48599 0.146757 -0.429269 13.9582 0.210598 0.198152 
38.5884 53.2908 8.50516 -16.0149 -59.8785 -18.9191 -71.9011 64.5277 14.3694 -133.936 14.6502 7.70637 105.849 33.491 -2.87222 40.3147 0.971057 12.3563 77.2955 70.0708 166.025 -132.819 -15.4502 -6.56761 99.0251 -32.1002 -4.50928 49.0102 -8.63006 4.91276 0.178614 12.9876 -90.3584 0.898589 0.22156 -0.690128 -10.7725 0.190968 -0.699226 -33.3067 0.41872 -0.591645 -13.294 0.418725 -0.591652 90.751 -4.3371 -120.671 9.19843 25.2505 -42.2276 -6.63394 -56.7705 -6.39168 -66.0722 -8.00291 7.29496 -89.5661 -34.4031 75.538 -15.3664 -20.4244 -75.5352 4.24017 49.8777 -5.32158 60.89 1.82813 -1.25206 -15.3882 -0.111661 8.14975 21.4864 -1.37407 -5.85836 
38.7058 51.3898 4.42884 -17.6538 -63.1332 -20.9735 -67.5276 62.542 11.708 -136.055 16.5035 8.01724 106.829 35.5513 -1.5023 35.1879 -0.719052 9.08746 70.636 68.4561 170.399 -135.275 -15.6143 -7.00033 103.191 -33.4479 -1.10484 46.1602 -7.58538 4.34232 0.0828074 12.9633 -90.3325 0.946826 0.0399733 -0.645884 -10.7243 0.011509 -0.647031 -33.2583 0.232235 -0.604017 -13.2456 0.232239 -0.604025 89.819 -2.80105 -125.232 6.55397 26.5338 -37.9532 -6.7156 -57.4364 -6.46037 -62.9708 -8.55414 8.98235 -90.3859 -36.255 74.6244 -14.0952 -22.3475 -76.5497 4.60431 53.7593 -5.68908 55.1105 3.11315 1.63797 -14.6772 -0.43055 10.8196 22.2773 -2.26803 -8.07368 
38.7351 49.6106 0.63831 -19.5967 -67.476 -23.0605 -65.5817 61.8503 11.9242 -137.677 16.0018 8.24535 111.89 35.802 -7.37077 26.2547 -4.65815 6.40707 66.8331 66.6863 171.593 -137.593 -16.3655 -7.44984 104.994 -34.2826 0.154953 40.7988 -6.14632 7.13375 0.0635686 13.2607 -90.3368 0.35171 0.00143366 -0.653817 -11.3193 -0.0273423 -0.653257 -33.8535 0.197866 -0.623166 -13.8408 0.197865 -0.62316 88.0653 -11.97 -121.163 4.47828 30.1304 -47.2626 -9.60979 -71.2608 -9.003 -53.2201 -7.45568 9.93514 -89.7507 -32.6188 74.6401 -11.9692 -25.5836 -77.8691 4.98985 57.1584 -6.07606 36.8868 1.18772 -1.02035 -6.20479 0.213559 8.67749 17.2214 -1.50337 -5.86517 
39.5018 48.2233 -2.88592 -6.97852 -74.3289 -12.6727 -71.7905 58.8984 14.284 -137.728 16.9423 8.30393 112.712 35.864 -8.64399 18.2827 -9.03075 5.62406 57.5985 68.5917 172.591 -140.343 -18.5182 -7.75215 105.704 -33.9896 1.82343 34.6098 -4.07222 7.17669 -0.49678 13.7401 -90.4378 -0.61258 -1.14896 -0.915335 -12.2833 -1.18813 -0.863894 -34.8182 -0.820776 -1.21832 -14.8056 -0.820771 -1.21832 96.5364 9.21936 -114.048 13.1604 22.5158 -46.501 -6.52819 -55.9072 -6.30747 -46.0561 -3.82151 3.95654 -88.3303 -26.8727 75.5149 -12.6045 -24.715 -78.127 5.21651 58.8678 -6.30436 45.5525 5.0373 7.13578 5.02955 0.959966 3.53164 10.2308 0.151851 -1.37299 
38.4825 46.5199 -6.30038 -18.7919 -74.7555 -22.1653 -59.0943 59.9259 6.92893 -139.366 18.7804 8.61678 113.908 35.8078 -11.0796 11.5547 -11.2492 2.80391 58.4565 62.132 176.482 -140.671 -16.4345 -8.32205 105.99 -35.117 0.228712 29.9736 -2.75888 8.16137 0.0765783 13.9106 -90.3921 -0.947997 0.0112038 -0.760113 -12.6192 -0.0222722 -0.759877 -35.1526 0.239112 -0.721618 -15.1399 0.239119 -0.7216 92.4698 -3.67657 -115.595 2.45052 31.7785 -47.663 -8.00074 -65.3334 -7.54423 -40.619 -1.63191 -0.644927 -86.8794 -20.284 76.3099 -12.5297 -25.1196 -79.7787 5.29261 59.4307 -6.37819 39.4851 5.73791 10.7312 15.3943 0.453654 -1.71057 4.68277 1.02594 2.44454 
37.9536 45.5115 -9.02938 -24.4211 -75.9673 -26.9186 -52.3855 59.5369 2.48565 -139.721 21.0324 8.81799 112.632 36.1397 -9.9094 4.19676 -13.7094 -0.000178475 57.9138 58.7225 178.743 -140.535 -15.917 -8.66602 104.786 -35.0744 -1.29051 26.7189 -2.36812 10.5485 0.358727 14.0781 -90.36 -1.28154 0.585587 -0.659976 -12.9525 0.555973 -0.685122 -35.4881 0.75686 -0.453477 -15.4754 0.75686 -0.453476 94.6957 -1.5143 -110.104 6.35183 29.5443 -52.879 -7.39012 -62.0675 -7.01324 -43.4526 -1.04682 -2.46689 -86.7929 -17.8765 75.6357 -12.8793 -24.9833 -82.1806 4.23542 49.8285 -5.31737 36.3161 4.38849 8.36554 20.3293 -0.380625 -5.607 4.21089 1.6301 5.30127 
37.8951 45.0527 -11.2788 -25.1942 -78.0121 -27.7967 -49.7948 57.7533 -0.189893 -139.682 22.6288 9.00725 107.111 35.0652 -5.41859 3.00887 -14.9239 0.539371 55.5268 57.3755 -179.958 -140.502 -16.7633 -8.92158 102.823 -34.035 -2.00766 23.8523 -1.62775 11.0769 0.333805 14.2346 -90.4053 -1.59451 0.520651 -0.749638 -13.2656 0.487161 -0.771832 -35.8005 0.72187 -0.558521 -15.7878 0.721872 -0.558508 95.8748 0.153903 -107.1 9.34889 27.2451 -55.8676 -8.01143 -65.3868 -7.55359 -51.8269 0.215278 -5.60749 -87.1181 -17.6374 74.7622 -13.9614 -23.5288 -83.8087 4.11555 48.3635 -5.19623 40.3013 3.27778 4.19238 22.6505 -0.537083 -6.08042 5.90223 1.81787 5.07234 
37.9544 44.5796 -13.0359 -25.6217 -79.0264 -28.017 -46.6055 55.5243 -3.11914 -139.724 23.186 9.25227 102.98 33.5047 -2.54757 0.691847 -16.3198 0.378261 52.851 55.3568 -178.352 -140.637 -18.3548 -9.28736 100.755 -33.6604 -3.84053 19.2905 -0.753198 12.6278 0.340928 14.2711 -90.4228 -1.66739 0.528756 -0.782283 -13.3385 0.493827 -0.8048 -35.8733 0.739419 -0.587221 -15.8607 0.739419 -0.587222 95.3278 -2.06525 -107.4 9.54805 27.2575 -56.9628 -9.33205 -70.4448 -8.7504 -55.4877 3.97821 -12.7977 -87.5164 -17.8876 73.9438 -15.6801 -20.7049 -84.0836 4.59186 53.6435 -5.676 47.5419 0.615899 -2.85211 23.8506 -0.449247 -6.16423 7.34018 2.0686 5.17873 
